<svg width="413" height="129" viewBox="0 0 413 129" fill="none" xmlns="http://www.w3.org/2000/svg">
<path d="M48.2646 9.64746C53.0529 6.88997 58.9471 6.88996 63.7354 9.64746L99.7354 30.3799C104.539 33.1465 107.5 38.2679 107.5 43.8115V85.1885C107.5 90.7321 104.539 95.8535 99.7354 98.6201L63.7354 119.353C58.9471 122.11 53.0529 122.11 48.2646 119.353L12.2646 98.6201C7.46073 95.8535 4.50003 90.7321 4.5 85.1885V43.8115C4.50002 38.2679 7.46073 33.1465 12.2646 30.3799L48.2646 9.64746Z" stroke="#17CBA2" stroke-width="9"/>
<path d="M144.88 98C141.829 98 139.125 97.168 136.768 95.504C134.411 93.84 132.573 91.5867 131.256 88.744C129.939 85.832 129.28 82.504 129.28 78.76V21.976C129.28 20.4507 129.765 19.2027 130.736 18.232C131.707 17.2613 132.955 16.776 134.48 16.776C136.005 16.776 137.253 17.2613 138.224 18.232C139.195 19.2027 139.68 20.4507 139.68 21.976V78.76C139.68 81.3253 140.165 83.44 141.136 85.104C142.107 86.768 143.355 87.6 144.88 87.6H147.48C148.867 87.6 149.976 88.0853 150.808 89.056C151.709 90.0267 152.16 91.2747 152.16 92.8C152.16 94.3253 151.501 95.5733 150.184 96.544C148.867 97.5147 147.168 98 145.088 98H144.88ZM186.119 98.416C180.365 98.416 175.234 97.2027 170.727 94.776C166.29 92.28 162.789 88.8827 160.223 84.584C157.727 80.216 156.479 75.224 156.479 69.608C156.479 63.9227 157.658 58.9307 160.015 54.632C162.442 50.264 165.77 46.8667 169.999 44.44C174.229 41.944 179.082 40.696 184.559 40.696C189.967 40.696 194.613 41.9093 198.495 44.336C202.378 46.6933 205.325 49.9867 207.335 54.216C209.415 58.376 210.455 63.1947 210.455 68.672C210.455 69.9893 210.005 71.0987 209.103 72C208.202 72.832 207.058 73.248 205.671 73.248H163.759V64.928H205.359L201.095 67.84C201.026 64.3733 200.333 61.288 199.015 58.584C197.698 55.8107 195.826 53.6267 193.399 52.032C190.973 50.4373 188.026 49.64 184.559 49.64C180.607 49.64 177.21 50.5067 174.367 52.24C171.594 53.9733 169.479 56.3653 168.023 59.416C166.567 62.3973 165.839 65.7947 165.839 69.608C165.839 73.4213 166.706 76.8187 168.439 79.8C170.173 82.7813 172.565 85.1387 175.615 86.872C178.666 88.6053 182.167 89.472 186.119 89.472C188.269 89.472 190.453 89.0907 192.671 88.328C194.959 87.496 196.797 86.56 198.183 85.52C199.223 84.7573 200.333 84.376 201.511 84.376C202.759 84.3067 203.834 84.6533 204.735 85.416C205.914 86.456 206.538 87.6 206.607 88.848C206.677 90.096 206.122 91.1707 204.943 92.072C202.586 93.944 199.639 95.4693 196.103 96.648C192.637 97.8267 189.309 98.416 186.119 98.416ZM245.666 98.416C240.604 98.416 236.063 97.168 232.042 94.672C228.02 92.1067 224.831 88.6747 222.474 84.376C220.186 80.008 219.042 75.0853 219.042 69.608C219.042 64.1307 220.29 59.208 222.786 54.84C225.351 50.472 228.783 47.04 233.082 44.544C237.45 41.9787 242.338 40.696 247.746 40.696C253.154 40.696 258.007 41.9787 262.306 44.544C266.604 47.04 270.002 50.472 272.498 54.84C275.063 59.208 276.346 64.1307 276.346 69.608H272.29C272.29 75.0853 271.111 80.008 268.754 84.376C266.466 88.6747 263.311 92.1067 259.29 94.672C255.268 97.168 250.727 98.416 245.666 98.416ZM247.746 89.056C251.282 89.056 254.436 88.224 257.21 86.56C259.983 84.8267 262.167 82.504 263.762 79.592C265.356 76.6107 266.154 73.2827 266.154 69.608C266.154 65.864 265.356 62.536 263.762 59.624C262.167 56.6427 259.983 54.32 257.21 52.656C254.436 50.9227 251.282 50.056 247.746 50.056C244.279 50.056 241.124 50.9227 238.282 52.656C235.508 54.32 233.29 56.6427 231.626 59.624C230.031 62.536 229.234 65.864 229.234 69.608C229.234 73.2827 230.031 76.6107 231.626 79.592C233.29 82.504 235.508 84.8267 238.282 86.56C241.124 88.224 244.279 89.056 247.746 89.056ZM271.042 98.104C269.516 98.104 268.234 97.6187 267.194 96.648C266.223 95.608 265.738 94.3253 265.738 92.8V76.888L267.714 65.864L276.346 69.608V92.8C276.346 94.3253 275.826 95.608 274.786 96.648C273.815 97.6187 272.567 98.104 271.042 98.104ZM317.925 98.416C312.517 98.416 307.629 97.168 303.261 94.672C298.963 92.1067 295.531 88.64 292.965 84.272C290.469 79.904 289.221 74.9813 289.221 69.504C289.221 64.0267 290.365 59.1387 292.653 54.84C295.011 50.472 298.2 47.04 302.221 44.544C306.243 41.9787 310.784 40.696 315.845 40.696C319.936 40.696 323.715 41.5627 327.181 43.296C330.648 44.96 333.56 47.248 335.917 50.16V22.08C335.917 20.4853 336.403 19.2027 337.373 18.232C338.413 17.2613 339.696 16.776 341.221 16.776C342.816 16.776 344.099 17.2613 345.069 18.232C346.04 19.2027 346.525 20.4853 346.525 22.08V69.504C346.525 74.9813 345.243 79.904 342.677 84.272C340.181 88.64 336.784 92.1067 332.485 94.672C328.187 97.168 323.333 98.416 317.925 98.416ZM317.925 89.056C321.461 89.056 324.616 88.224 327.389 86.56C330.163 84.8267 332.347 82.4693 333.941 79.488C335.536 76.5067 336.333 73.1787 336.333 69.504C336.333 65.76 335.536 62.432 333.941 59.52C332.347 56.608 330.163 54.32 327.389 52.656C324.616 50.9227 321.461 50.056 317.925 50.056C314.459 50.056 311.304 50.9227 308.461 52.656C305.688 54.32 303.469 56.608 301.805 59.52C300.211 62.432 299.413 65.76 299.413 69.504C299.413 73.1787 300.211 76.5067 301.805 79.488C303.469 82.4693 305.688 84.8267 308.461 86.56C311.304 88.224 314.459 89.056 317.925 89.056ZM385.954 98.416C381.101 98.416 376.594 97.688 372.434 96.232C368.344 94.7067 365.154 92.8 362.866 90.512C361.826 89.4027 361.376 88.1547 361.514 86.768C361.722 85.312 362.416 84.1333 363.594 83.232C364.981 82.1227 366.333 81.672 367.65 81.88C369.037 82.0187 370.216 82.608 371.186 83.648C372.365 84.9653 374.237 86.2133 376.802 87.392C379.437 88.5013 382.349 89.056 385.538 89.056C389.56 89.056 392.61 88.3973 394.69 87.08C396.84 85.7627 397.949 84.064 398.018 81.984C398.088 79.904 397.082 78.1013 395.002 76.576C392.992 75.0507 389.282 73.8027 383.874 72.832C376.872 71.4453 371.776 69.3653 368.586 66.592C365.466 63.8187 363.906 60.4213 363.906 56.4C363.906 52.864 364.946 49.952 367.026 47.664C369.106 45.3067 371.776 43.5733 375.034 42.464C378.293 41.2853 381.69 40.696 385.226 40.696C389.802 40.696 393.858 41.424 397.394 42.88C400.93 44.336 403.738 46.3467 405.818 48.912C406.789 50.0213 407.24 51.2 407.17 52.448C407.101 53.6267 406.512 54.632 405.402 55.464C404.293 56.2267 402.976 56.4693 401.45 56.192C399.925 55.9147 398.642 55.2907 397.602 54.32C395.869 52.656 393.997 51.512 391.986 50.888C389.976 50.264 387.653 49.952 385.018 49.952C381.968 49.952 379.368 50.472 377.218 51.512C375.138 52.552 374.098 54.0773 374.098 56.088C374.098 57.336 374.41 58.48 375.034 59.52C375.728 60.4907 377.045 61.392 378.986 62.224C380.928 62.9867 383.77 63.7493 387.514 64.512C392.714 65.552 396.805 66.8693 399.786 68.464C402.837 70.0587 405.021 71.9307 406.338 74.08C407.656 76.16 408.314 78.5867 408.314 81.36C408.314 84.5493 407.448 87.4267 405.714 89.992C404.05 92.5573 401.554 94.6027 398.226 96.128C394.968 97.6533 390.877 98.416 385.954 98.416Z" fill="url(#paint0_linear_1813_59)"/>
<defs>
<linearGradient id="paint0_linear_1813_59" x1="122" y1="64.5" x2="413" y2="64.5" gradientUnits="userSpaceOnUse">
<stop stop-color="#3C91BB"/>
<stop offset="1" stop-color="#17CBA2"/>
</linearGradient>
</defs>
</svg>
